<svg width="148" height="31" viewBox="0 0 148 31" fill="none" xmlns="http://www.w3.org/2000/svg">
<path d="M17.1035 28.2149C17.1035 28.2049 17.1035 28.1949 17.1035 27.5031C17.1035 26.8113 17.1035 25.438 17.1522 24.5995C17.2009 23.7611 17.2982 23.4991 17.5102 23.073" stroke="#FCB11F" stroke-width="2" stroke-linecap="round"/>
<path d="M10.3645 16.4408C10.3437 16.4408 10.323 16.4408 9.1181 16.4408C7.91325 16.4408 5.52494 16.4408 2.63477 15.8964" stroke="#FCB11F" stroke-width="2" stroke-linecap="round"/>
<path d="M1 29.1815C1.01002 29.1712 1.02004 29.1608 2.03486 28.4087C3.04968 27.6565 5.06899 26.163 6.87087 24.9995C8.67275 23.8361 10.196 23.048 12.2047 22.1525" stroke="#FCB11F" stroke-width="2" stroke-linecap="round"/>
<path d="M134.078 7.54948C134.357 7.25957 138.323 3.39579 140.728 1.1243C141.926 -0.00767528 138.075 6.85779 137.145 9.45999C136.806 10.4064 139.411 8.69314 146.919 8.4256C147.624 8.40045 143.62 11.1348 140.487 13.3464C139.526 14.0248 140.076 14.1074 140.46 14.1765C142.653 14.5725 144.709 17.3703 145.152 17.8763C145.213 18.1067 144.942 18.2835 143.935 18.2733C142.929 18.2631 141.196 18.0605 139.146 17.7271" stroke="#FCB11F" stroke-width="2" stroke-linecap="round"/>
</svg>
