<svg width="181" height="28" viewBox="0 0 181 28" fill="none" xmlns="http://www.w3.org/2000/svg">
<path d="M18.7056 8.60563L19.9508 4.92352L16.453 6.62357L16.3644 2.73601L13.6605 5.53183L12.2461 1.91016L10.6584 5.45932L8.0875 2.54264L7.81349 6.42215L4.4044 4.55692L5.47226 8.29543L1.62798 7.70726L3.91279 10.8536L0.0967107 11.623L3.32043 13.7984L0 15.8208L3.77175 16.7635L1.34187 19.797L5.21033 19.3941L3.96517 23.0803L7.46291 21.3802L7.55559 25.2637L10.2555 22.4719L11.6739 26.0896L13.2575 22.5404L15.8244 25.4611L16.1025 21.5816L19.5116 23.4469L18.4437 19.7083L22.288 20.2925L20.0072 17.1462L23.8192 16.3808L20.5955 14.2053L23.92 12.183L20.1442 11.2403L22.5741 8.20277L18.7056 8.60563Z" fill="#FCB11F"/>
<path d="M22.3818 23.7385C27.6474 23.7385 31.916 19.471 31.916 14.2069C31.916 8.94273 27.6474 4.67529 22.3818 4.67529C17.1162 4.67529 12.8477 8.94273 12.8477 14.2069C12.8477 19.471 17.1162 23.7385 22.3818 23.7385Z" fill="#48BEA2"/>
<path d="M16.908 6.40182C16.7468 6.51462 16.5856 6.63547 16.4285 6.76036C12.3142 10.0477 11.6493 16.0462 14.9335 20.1594C15.5299 20.9046 16.2189 21.5412 16.9685 22.0568C17.5084 22.4274 18.0806 22.7417 18.677 22.9914C18.9349 23.1002 19.1969 23.1969 19.4628 23.2815L18.4433 19.7082L22.2916 20.2923L20.0068 17.142L23.8189 16.3806L20.5951 14.2051L23.9156 12.1828L20.1438 11.2401L22.5737 8.20258L18.7052 8.60544L19.9262 4.99585C19.8255 5.02002 19.7288 5.04822 19.628 5.08045C18.677 5.36648 17.7583 5.80559 16.904 6.40182H16.908Z" fill="#183A39"/>
<path d="M134.062 6.4607C134.062 5.28033 134.981 4.4021 136.234 4.4021C137.488 4.4021 138.406 5.28033 138.406 6.4607C138.406 7.64106 137.488 8.51929 136.234 8.51929C134.981 8.51929 134.062 7.65718 134.062 6.4607Z" fill="#E4DBCD"/>
<path d="M118.659 22.0487C118.091 22.0487 117.531 21.9963 116.995 21.8875C115.113 21.5129 113.618 20.4735 112.78 18.9628C111.776 17.154 111.357 14.0802 112.804 11.6066C113.888 9.75751 115.802 8.73425 118.196 8.72217H118.24C123.35 8.72217 124.913 12.8474 125.03 15.039L123.527 16.6222H115.056C115.145 16.9485 115.262 17.2506 115.407 17.5085C115.818 18.2538 116.551 18.7372 117.579 18.9426C119.352 19.2971 121.568 18.7211 123.1 17.5085L124.965 19.8652C123.2 21.2631 120.859 22.0487 118.655 22.0487H118.659ZM115.165 13.6169H121.597C121.137 12.6943 120.186 11.7315 118.24 11.7315H118.212C116.866 11.7396 115.947 12.1948 115.399 13.1294C115.31 13.2825 115.23 13.4477 115.165 13.6169Z" fill="#E4DBCD"/>
<path d="M147.882 23.3974L146.077 21.371C147.725 17.4512 148.777 12.8667 148.301 11.9925C147.959 11.497 147.79 11.4849 147.242 11.4729C146.734 11.4567 145.65 12.6693 144.046 16.4481C142.914 19.111 142.176 21.7618 142.168 21.786L139.227 21.2139L140.673 8.77372L143.659 9.12018L143.417 11.1909C144.538 9.55929 145.686 8.67301 146.923 8.46755C147.931 8.29835 149.418 8.51589 150.796 10.5141C151.714 11.8435 151.622 14.1156 150.502 17.8863C150.344 18.4221 150.175 18.9378 150.014 19.4252C150.747 19.103 151.444 18.7444 151.908 18.3818L153.753 20.7547C151.9 22.1969 148.293 23.2766 147.886 23.3934L147.882 23.3974Z" fill="#E4DBCD"/>
<path d="M109.464 14.1685C109.23 13.959 108.98 13.7697 108.71 13.6005C108.811 13.5199 108.908 13.4393 109.004 13.3547C110.044 12.408 110.592 11.131 110.58 9.66055C110.568 8.10956 109.947 6.80833 108.791 5.89384C105.329 3.16651 97.8826 4.79405 97.0445 4.98742L97.7215 7.91619C98.1002 7.82756 98.5274 7.74296 98.9827 7.67044V19.4782C97.9149 19.2203 96.9155 18.9222 96.1015 18.6281L95.082 21.4562C95.7429 21.6939 99.9498 23.1562 103.863 23.1562C105.696 23.1562 107.465 22.834 108.775 21.9154C109.75 21.2266 110.915 19.9012 110.915 17.4679C110.915 16.1747 110.415 15.0347 109.468 14.1685H109.464ZM106.925 8.25861C107.364 8.60507 107.562 9.04821 107.57 9.68875C107.574 10.3092 107.393 10.7523 106.982 11.127C106.244 11.7957 104.939 12.1059 103.705 12.2267C103.065 12.1824 102.472 12.1744 101.989 12.1824V7.35622C103.979 7.27564 105.938 7.47707 106.929 8.25861H106.925ZM107.046 19.454C105.986 20.1993 104.052 20.2758 101.989 20.0301V15.3126C102.493 15.3207 103.109 15.3126 103.774 15.2522C105.229 15.3811 106.695 15.7155 107.437 16.3963C107.759 16.6904 107.904 17.0207 107.904 17.4679C107.904 18.7087 107.413 19.1962 107.046 19.454Z" fill="#E4DBCD"/>
<path d="M161.119 19.6992C158.637 20.8071 158.173 20.7869 157.758 20.1303C157.569 19.8281 157.609 19.6751 157.634 19.5905C157.807 18.9902 158.818 18.2651 159.451 17.967L159.382 17.8219C159.382 17.8219 159.382 17.8219 159.386 17.8219C160.011 18.0072 160.684 18.1039 161.389 18.1039C163.589 18.1039 165.572 17.3425 166.829 16.0091C167.744 15.0422 168.203 13.8216 168.131 12.5727C168.05 11.1547 167.418 9.91385 166.422 9.0034C166.483 8.42329 166.648 7.81498 166.813 7.55715C167.002 7.62966 167.45 7.87137 168.199 8.65694L170.371 6.58224C169.739 5.92155 167.812 3.90727 165.741 4.70089C164.48 5.18432 163.896 6.47749 163.622 7.57729C163.078 7.45643 162.497 7.396 161.901 7.41212C160.067 7.45643 158.508 8.00029 157.388 8.90671C156.267 9.81314 155.586 11.0821 155.51 12.5808C155.441 13.9062 155.873 15.159 156.723 16.142C155.945 16.7382 155.087 17.6124 154.756 18.7404C154.462 19.7476 154.623 20.7829 155.224 21.7337C157.142 24.7631 160.277 23.3652 162.352 22.4387C165.02 21.2502 165.705 21.2744 166.301 21.9351C166.519 22.1768 167.099 22.8214 166.184 23.7721C164.315 25.7058 161.236 24.9847 159.725 23.7197L157.791 26.02C159.415 27.3857 161.284 27.9699 163.053 27.9699C165.141 27.9699 167.091 27.1561 168.344 25.8589C170.057 24.0823 170.138 21.6974 168.534 19.9208C166.265 17.403 163.295 18.7243 161.127 19.6912L161.119 19.6992ZM158.504 12.7419C158.613 10.6108 161.413 10.4335 161.969 10.4174H162.078C163.746 10.4174 165.048 11.4044 165.125 12.75C165.149 13.177 164.984 13.5798 164.633 13.9505C163.956 14.6716 162.739 15.0986 161.385 15.0986C160.418 15.0986 159.564 14.7844 159.044 14.2365C158.681 13.8578 158.5 13.3945 158.5 12.8628C158.5 12.8225 158.5 12.7822 158.5 12.7419H158.504Z" fill="#E4DBCD"/>
<path d="M175.39 21.984C174.141 21.984 172.699 21.5207 171.079 20.5982C169.64 19.7804 168.556 18.874 168.512 18.8377L170.442 16.5334C171.84 17.6976 174.496 19.2688 175.749 18.9424C175.894 18.9062 176.2 18.8256 176.458 18.1609C176.615 17.754 176.692 17.5486 174.54 16.4971C172.807 15.6511 169.588 14.0759 171.111 10.5348C171.594 9.41489 172.433 8.66155 173.537 8.35538C176.241 7.61009 179.601 9.9104 180.246 10.3777L178.481 12.811C177.385 12.0214 175.31 10.982 174.331 11.2519C174.189 11.2922 174.024 11.3647 173.871 11.7192C173.585 12.3799 173.48 12.6297 175.858 13.7899C176.809 14.2532 177.788 14.7326 178.509 15.4618C179.533 16.4931 179.799 17.8346 179.263 19.2365C178.594 20.9809 177.393 21.6214 176.503 21.8511C176.152 21.9437 175.781 21.988 175.39 21.988V21.984Z" fill="#E4DBCD"/>
<path d="M138.275 18.8008V21.8061H126.352V18.8008H131.078L131.659 14.4338C130.313 15.4329 128.507 16.291 128.27 16.3998L127.633 15.0381L126.996 13.6765C127.625 13.3824 129.434 12.4518 130.268 11.6944C131.143 10.8968 132.211 9.07987 132.553 8.45142L135.37 9.35784L134.113 18.8008H138.271H138.275Z" fill="#E4DBCD"/>
<path d="M52.3598 8.12762V18.4649H54.2577V21.4702H47.4516V18.4649H49.3496V14.7183H43.8572V18.5374H45.7552V21.5427H38.9531V18.5374H40.8511V8.20014H38.9531V5.19483H45.7552V8.20014H43.8572V11.709H49.3496V8.12762H47.4516V5.12231H54.2577V8.12762H52.3598Z" fill="#E4DBCD"/>
<path d="M61.3208 21.1185H57.7062L56.2031 19.6159V5.13721H59.2092V18.1132H61.3208V21.1185Z" fill="#E4DBCD"/>
<path d="M73.3975 20.1093C72.7286 20.8506 71.4875 21.7328 69.3638 21.7328C67.5223 21.7328 66.0797 21.1809 65.0722 20.0932C63.7263 18.6389 63.7263 16.7858 63.7505 16.3507V12.2536C62.7794 12.9546 62.046 13.3091 61.9694 13.3454L60.6719 10.6342C60.7122 10.614 64.7257 8.63196 65.9709 4.58325L68.844 5.46551C68.4572 6.73048 67.8769 7.8343 67.212 8.78102H74.0866V11.7863H66.7526V16.5078C66.7526 16.5078 66.7486 16.5199 66.7486 16.5441C66.7486 16.7253 66.7768 17.523 67.2926 18.0628C67.7076 18.5019 68.4048 18.7235 69.3598 18.7235C70.1859 18.7235 70.7702 18.5181 71.153 18.0991C71.7897 17.4021 71.83 16.1654 71.7897 15.7464L74.7797 15.4443C74.8079 15.7303 75.0255 18.2884 73.3894 20.1013L73.3975 20.1093Z" fill="#E4DBCD"/>
<path d="M90.7019 8.81579V11.8211H89.1344L83.4606 25.8204L83.4082 25.9372C83.0012 26.7348 81.7158 27.9998 79.3866 27.9998C79.2174 27.9998 79.0441 27.9918 78.8628 27.9797C76.4772 27.7944 75.2119 26.3118 74.8815 24.7044C74.8331 24.4587 74.8049 24.2089 74.7969 23.9632C74.7969 23.9229 74.8049 23.8826 74.809 23.8423C74.9379 22.811 75.8164 22.0134 76.8802 22.0134C78.0327 22.0134 78.9676 22.948 78.9676 24.1042C78.9676 24.4023 78.9071 24.6883 78.7903 24.9462C78.9111 24.9663 79.0159 24.9744 79.0925 24.9824C80.1805 25.067 80.6117 24.6883 80.7285 24.5514L81.748 22.0375L77.1663 11.8171H75.5786V8.81177H82.3807V11.8171H80.4626L83.3155 18.1782L85.8945 11.8171H83.9482V8.81177H90.7059L90.7019 8.81579Z" fill="#E4DBCD"/>
</svg>
