<svg width="209" height="33" viewBox="0 0 209 33" fill="none" xmlns="http://www.w3.org/2000/svg">
<path d="M21.6901 9.97793L23.1339 5.70835L19.0781 7.67965L18.9753 3.17182L15.84 6.41372L14.2 2.2142L12.359 6.32963L9.37786 2.9476L9.06013 7.44608L5.10713 5.28326L6.34536 9.61824L1.88772 8.93623L4.53707 12.5845L0.112141 13.4768L3.8502 15.9993L0 18.3443L4.37353 19.4374L1.55597 22.9549L6.04164 22.4877L4.59781 26.762L8.65361 24.7907L8.76108 29.2938L11.8917 26.0566L13.5365 30.2515L15.3728 26.136L18.3492 29.5227L18.6716 25.0243L22.6246 27.1871L21.3864 22.8521L25.844 23.5294L23.1993 19.8811L27.6196 18.9936L23.8815 16.4711L27.7364 14.1261L23.3582 13.033L26.1758 9.5108L21.6901 9.97793Z" fill="#FCB11F"/>
<path d="M25.9577 27.5237C32.0633 27.5237 37.013 22.5754 37.013 16.4713C37.013 10.3673 32.0633 5.41901 25.9577 5.41901C19.852 5.41901 14.9023 10.3673 14.9023 16.4713C14.9023 22.5754 19.852 27.5237 25.9577 27.5237Z" fill="#48BEA2"/>
<path d="M19.6066 7.42254C19.4197 7.55334 19.2328 7.69348 19.0506 7.83829C14.2799 11.6501 13.5089 18.6057 17.3171 23.3751C18.0086 24.2393 18.8076 24.9774 19.6767 25.5753C20.3028 26.0051 20.9663 26.3694 21.6579 26.659C21.9569 26.7852 22.2607 26.8973 22.569 26.9954L21.3869 22.8519L25.8492 23.5293L23.1998 19.8763L27.6201 18.9934L23.882 16.4709L27.7322 14.1259L23.3587 13.0328L26.1763 9.51062L21.6906 9.97775L23.1064 5.79225C22.9896 5.82028 22.8774 5.85298 22.7606 5.89035C21.6579 6.22201 20.5925 6.73119 19.602 7.42254H19.6066Z" fill="#183A39"/>
<path d="M155.453 7.48812C155.453 6.11942 156.518 5.10107 157.972 5.10107C159.425 5.10107 160.49 6.11942 160.49 7.48812C160.49 8.85682 159.425 9.87516 157.972 9.87516C156.518 9.87516 155.453 8.8755 155.453 7.48812Z" fill="#E4DBCD"/>
<path d="M137.59 25.5659C136.931 25.5659 136.282 25.5052 135.661 25.3791C133.478 24.9447 131.745 23.7395 130.773 21.9877C129.61 19.8903 129.124 16.3261 130.801 13.4579C132.058 11.3137 134.277 10.1272 137.053 10.1132H137.104C143.029 10.1132 144.842 14.8967 144.978 17.4378L143.235 19.2737H133.413C133.516 19.6521 133.651 20.0024 133.82 20.3014C134.296 21.1656 135.147 21.7261 136.338 21.9644C138.394 22.3754 140.964 21.7074 142.739 20.3014L144.903 23.0341C142.856 24.655 140.142 25.5659 137.586 25.5659H137.59ZM133.539 15.7889H140.997C140.464 14.7191 139.361 13.6027 137.104 13.6027H137.072C135.511 13.612 134.446 14.1399 133.81 15.2236C133.707 15.4012 133.614 15.5927 133.539 15.7889Z" fill="#E4DBCD"/>
<path d="M171.478 27.1309L169.385 24.7812C171.296 20.236 172.515 14.92 171.964 13.9064C171.567 13.3318 171.371 13.3178 170.735 13.3038C170.146 13.2851 168.889 14.6911 167.03 19.0728C165.717 22.1606 164.862 25.2343 164.852 25.2623L161.441 24.599L163.119 10.174L166.581 10.5757L166.301 12.9768C167.6 11.0849 168.932 10.0572 170.366 9.81896C171.534 9.62277 173.258 9.87502 174.856 12.192C175.922 13.7335 175.814 16.3681 174.515 20.7405C174.333 21.3618 174.137 21.9597 173.95 22.525C174.8 22.1512 175.609 21.7355 176.146 21.3151L178.286 24.0665C176.137 25.7388 171.955 26.9907 171.483 27.1262L171.478 27.1309Z" fill="#E4DBCD"/>
<path d="M126.926 16.4292C126.655 16.1863 126.366 15.9667 126.053 15.7705C126.169 15.6771 126.282 15.5837 126.394 15.4856C127.599 14.3878 128.235 12.907 128.221 11.202C128.207 9.40353 127.487 7.89469 126.146 6.8343C122.132 3.67182 113.497 5.55903 112.526 5.78325L113.311 9.17931C113.75 9.07654 114.245 8.97844 114.773 8.89435V22.586C113.535 22.287 112.376 21.9414 111.432 21.6003L110.25 24.8796C111.016 25.1552 115.894 26.8509 120.432 26.8509C122.558 26.8509 124.609 26.4772 126.127 25.4121C127.258 24.6133 128.609 23.0765 128.609 20.255C128.609 18.7555 128.029 17.4335 126.931 16.4292H126.926ZM123.983 9.57637C124.492 9.9781 124.721 10.4919 124.73 11.2347C124.735 11.9541 124.525 12.4679 124.048 12.9023C123.193 13.6778 121.679 14.0375 120.249 14.1776C119.506 14.1262 118.82 14.1169 118.259 14.1262V8.52999C120.567 8.43657 122.838 8.67013 123.987 9.57637H123.983ZM124.123 22.558C122.894 23.4222 120.651 23.5109 118.259 23.226V17.7558C118.843 17.7652 119.558 17.7558 120.329 17.6858C122.016 17.8353 123.716 18.223 124.576 19.0124C124.95 19.3534 125.118 19.7365 125.118 20.255C125.118 21.6938 124.548 22.259 124.123 22.558Z" fill="#E4DBCD"/>
<path d="M186.825 22.8429C183.947 24.1275 183.409 24.1042 182.928 23.3428C182.709 22.9924 182.755 22.8149 182.783 22.7168C182.984 22.0208 184.157 21.1799 184.891 20.8343L184.811 20.6661C184.811 20.6661 184.811 20.6661 184.816 20.6661C185.54 20.881 186.321 20.9931 187.138 20.9931C189.689 20.9931 191.988 20.1102 193.446 18.564C194.507 17.4429 195.04 16.0275 194.955 14.5794C194.862 12.9351 194.128 11.4963 192.974 10.4406C193.044 9.7679 193.236 9.06254 193.427 8.76357C193.647 8.84766 194.166 9.12793 195.035 10.0388L197.553 7.63311C196.82 6.86702 194.586 4.53136 192.185 5.45161C190.722 6.01216 190.045 7.51166 189.727 8.78693C189.096 8.64679 188.423 8.57672 187.732 8.5954C185.606 8.64679 183.797 9.27742 182.498 10.3285C181.199 11.3795 180.41 12.851 180.321 14.5887C180.241 16.1256 180.741 17.5784 181.727 18.7182C180.826 19.4095 179.83 20.4232 179.447 21.7312C179.106 22.899 179.293 24.0995 179.989 25.2019C182.213 28.7148 185.849 27.0938 188.255 26.0194C191.348 24.6414 192.143 24.6694 192.834 25.4355C193.086 25.7158 193.759 26.4632 192.699 27.5656C190.531 29.8079 186.961 28.9717 185.208 27.5049L182.966 30.1722C184.849 31.7558 187.017 32.4331 189.068 32.4331C191.488 32.4331 193.75 31.4895 195.203 29.9854C197.189 27.9253 197.282 25.1599 195.423 23.0998C192.792 20.1803 189.348 21.7125 186.834 22.8336L186.825 22.8429ZM183.793 14.7756C183.919 12.3044 187.166 12.0989 187.811 12.0802H187.937C189.872 12.0802 191.381 13.2247 191.47 14.7849C191.498 15.2801 191.306 15.7472 190.9 16.177C190.115 17.0131 188.704 17.5083 187.134 17.5083C186.012 17.5083 185.022 17.1439 184.419 16.5086C183.998 16.0695 183.788 15.5323 183.788 14.9157C183.788 14.869 183.788 14.8223 183.788 14.7756H183.793Z" fill="#E4DBCD"/>
<path d="M203.371 25.4914C201.922 25.4914 200.249 24.9542 198.371 23.8845C196.703 22.9362 195.446 21.8852 195.395 21.8431L197.633 19.1711C199.254 20.5212 202.333 22.343 203.786 21.9646C203.955 21.9226 204.31 21.8291 204.609 21.0584C204.791 20.5866 204.88 20.3483 202.385 19.1291C200.376 18.1481 196.642 16.3216 198.408 12.2156C198.969 10.9169 199.941 10.0434 201.221 9.68837C204.357 8.82418 208.253 11.4915 209.001 12.0334L206.954 14.8549C205.684 13.9393 203.277 12.7341 202.142 13.047C201.978 13.0938 201.787 13.1778 201.609 13.5889C201.277 14.355 201.156 14.6446 203.913 15.99C205.015 16.5272 206.151 17.0831 206.987 17.9286C208.174 19.1244 208.482 20.68 207.861 22.3056C207.085 24.3283 205.693 25.071 204.66 25.3373C204.254 25.4447 203.824 25.4961 203.371 25.4961V25.4914Z" fill="#E4DBCD"/>
<path d="M160.342 21.7964V25.2812H146.516V21.7964H151.997L152.669 16.7327C151.109 17.8911 149.015 18.8861 148.74 19.0123L148.002 17.4334L147.263 15.8544C147.992 15.5134 150.09 14.4344 151.057 13.5562C152.071 12.6312 153.31 10.5245 153.707 9.79575L156.973 10.8468L155.515 21.7964H160.337H160.342Z" fill="#E4DBCD"/>
<path d="M60.7175 9.42673V21.4133H62.9183V24.8981H55.0263V21.4133H57.2271V17.069H50.8584V21.4974H53.0592V24.9822H45.1719V21.4974H47.3727V9.51081H45.1719V6.02601H53.0592V9.51081H50.8584V13.5795H57.2271V9.42673H55.0263V5.94193H62.9183V9.42673H60.7175Z" fill="#E4DBCD"/>
<path d="M71.11 24.4871H66.9187L65.1758 22.7447V5.95601H68.6615V21.0023H71.11V24.4871Z" fill="#E4DBCD"/>
<path d="M85.1115 23.3194C84.3358 24.179 82.8967 25.202 80.4342 25.202C78.2989 25.202 76.6261 24.562 75.4579 23.3007C73.8973 21.6144 73.8973 19.4656 73.9253 18.9611V14.2104C72.7992 15.0232 71.9488 15.4342 71.86 15.4763L70.3555 12.3325C70.4022 12.3091 75.0561 10.0108 76.4999 5.31616L79.8315 6.33918C79.3829 7.80598 78.71 9.08592 77.9391 10.1837H85.9105V13.6685H77.4064V19.1433C77.4064 19.1433 77.4017 19.1573 77.4017 19.1853C77.4017 19.3955 77.4344 20.3204 78.0325 20.9464C78.5138 21.4556 79.3221 21.7125 80.4295 21.7125C81.3874 21.7125 82.0649 21.4743 82.5088 20.9884C83.2471 20.1803 83.2938 18.7462 83.2471 18.2604L86.7142 17.91C86.7469 18.2417 86.9992 21.208 85.1021 23.3101L85.1115 23.3194Z" fill="#E4DBCD"/>
<path d="M105.177 10.2209V13.7057H103.359L96.7804 29.9385L96.7197 30.074C96.2477 30.9989 94.7572 32.4657 92.0564 32.4657C91.8602 32.4657 91.6593 32.4563 91.449 32.4423C88.6828 32.2274 87.2156 30.5084 86.8325 28.6445C86.7764 28.3596 86.7437 28.07 86.7344 27.785C86.7344 27.7383 86.7437 27.6916 86.7484 27.6449C86.8979 26.449 87.9165 25.5241 89.1501 25.5241C90.4865 25.5241 91.5705 26.6078 91.5705 27.9485C91.5705 28.2942 91.5004 28.6259 91.3649 28.9248C91.5051 28.9482 91.6266 28.9575 91.7153 28.9669C92.9769 29.065 93.4769 28.6259 93.6124 28.467L94.7946 25.5521L89.4819 13.701H87.6409V10.2162H95.5282V13.701H93.304L96.6122 21.077L99.6027 13.701H97.3458V10.2162H105.182L105.177 10.2209Z" fill="#E4DBCD"/>
</svg>
