<svg width="1229" height="390" viewBox="0 0 1229 390" fill="none" xmlns="http://www.w3.org/2000/svg">
<g filter="url(#filter0_n_2071_8194)">
<rect x="991" y="4" width="15" height="15" fill="#FCB11F"/>
<rect x="1213.25" y="216" width="15" height="15" fill="#BB0B0B"/>
<rect x="991" y="284" width="15" height="15" fill="#214892"/>
<rect x="1155.25" y="68" width="15" height="15" fill="#214892"/>
<rect x="661" y="360" width="15" height="15" fill="#BEB4A5"/>
<rect x="66" y="141" width="15" height="15" fill="#BEB4A5"/>
<rect x="463" width="15" height="15" fill="#BEB4A5"/>
<rect x="1145" y="375" width="15" height="15" fill="#BEB4A5"/>
<rect x="1075" y="165" width="15" height="15" fill="#BEB4A5"/>
<rect x="859" y="360" width="15" height="15" fill="#51D2A2"/>
<rect x="237" y="226" width="15" height="15" fill="#FCB11F"/>
<path d="M434 328H449V343H434V328Z" fill="#BB0B0B"/>
<rect x="201.25" y="20" width="15" height="15" fill="#BB0B0B"/>
<rect y="253" width="15" height="15" fill="#51D2A2"/>
<rect x="705" y="22" width="15" height="15" fill="#51D2A2"/>
<rect x="117" y="351" width="15" height="15" fill="#214892"/>
<rect x="8" y="27" width="15" height="15" fill="#214892"/>
</g>
<defs>
<filter id="filter0_n_2071_8194" x="0" y="0" width="1228.25" height="390" filterUnits="userSpaceOnUse" color-interpolation-filters="sRGB">
<feFlood flood-opacity="0" result="BackgroundImageFix"/>
<feBlend mode="normal" in="SourceGraphic" in2="BackgroundImageFix" result="shape"/>
<feTurbulence type="fractalNoise" baseFrequency="0.76923078298568726 0.76923078298568726" stitchTiles="stitch" numOctaves="3" result="noise" seed="6528" />
<feColorMatrix in="noise" type="luminanceToAlpha" result="alphaNoise" />
<feComponentTransfer in="alphaNoise" result="coloredNoise1">
<feFuncA type="discrete" tableValues="1 1 1 1 1 1 1 1 1 1 1 1 1 1 1 1 1 1 1 1 1 1 1 1 1 1 1 1 1 1 1 1 1 1 1 1 1 1 1 1 1 1 1 1 1 1 1 1 1 1 1 0 0 0 0 0 0 0 0 0 0 0 0 0 0 0 0 0 0 0 0 0 0 0 0 0 0 0 0 0 0 0 0 0 0 0 0 0 0 0 0 0 0 0 0 0 0 0 0 0 "/>
</feComponentTransfer>
<feComposite operator="in" in2="shape" in="coloredNoise1" result="noise1Clipped" />
<feFlood flood-color="#E4DBCD" result="color1Flood" />
<feComposite operator="in" in2="noise1Clipped" in="color1Flood" result="color1" />
<feMerge result="effect1_noise_2071_8194">
<feMergeNode in="shape" />
<feMergeNode in="color1" />
</feMerge>
</filter>
</defs>
</svg>
