<svg width="588" height="598" viewBox="0 0 588 598" fill="none" xmlns="http://www.w3.org/2000/svg">
<g filter="url(#filter0_n_2071_8179)">
<rect x="116" y="133" width="15" height="15" fill="#BEB4A5"/>
<rect x="96" y="463" width="15" height="15" fill="#BEB4A5"/>
<rect x="573" y="22" width="15" height="15" fill="#BEB4A5"/>
<rect x="553" y="512" width="15" height="15" fill="#BEB4A5"/>
<rect x="295" y="148" width="15" height="15" fill="#FCB11F"/>
<rect x="415" y="428" width="15" height="15" fill="#FCB11F"/>
<path d="M254 460H269V475H254V460Z" fill="#BB0B0B"/>
<rect x="157" width="15" height="15" fill="#BB0B0B"/>
<rect y="505" width="15" height="15" fill="#51D2A2"/>
<rect x="380" y="565" width="15" height="15" fill="#51D2A2"/>
<rect x="380" y="55" width="15" height="15" fill="#51D2A2"/>
<rect x="117" y="583" width="15" height="15" fill="#214892"/>
<rect x="8" y="49" width="15" height="15" fill="#214892"/>
<rect x="518" y="179" width="15" height="15" fill="#214892"/>
</g>
<defs>
<filter id="filter0_n_2071_8179" x="0" y="0" width="588" height="598" filterUnits="userSpaceOnUse" color-interpolation-filters="sRGB">
<feFlood flood-opacity="0" result="BackgroundImageFix"/>
<feBlend mode="normal" in="SourceGraphic" in2="BackgroundImageFix" result="shape"/>
<feTurbulence type="fractalNoise" baseFrequency="0.76923078298568726 0.76923078298568726" stitchTiles="stitch" numOctaves="3" result="noise" seed="6528" />
<feColorMatrix in="noise" type="luminanceToAlpha" result="alphaNoise" />
<feComponentTransfer in="alphaNoise" result="coloredNoise1">
<feFuncA type="discrete" tableValues="1 1 1 1 1 1 1 1 1 1 1 1 1 1 1 1 1 1 1 1 1 1 1 1 1 1 1 1 1 1 1 1 1 1 1 1 1 1 1 1 1 1 1 1 1 1 1 1 1 1 1 0 0 0 0 0 0 0 0 0 0 0 0 0 0 0 0 0 0 0 0 0 0 0 0 0 0 0 0 0 0 0 0 0 0 0 0 0 0 0 0 0 0 0 0 0 0 0 0 0 "/>
</feComponentTransfer>
<feComposite operator="in" in2="shape" in="coloredNoise1" result="noise1Clipped" />
<feFlood flood-color="#E4DBCD" result="color1Flood" />
<feComposite operator="in" in2="noise1Clipped" in="color1Flood" result="color1" />
<feMerge result="effect1_noise_2071_8179">
<feMergeNode in="shape" />
<feMergeNode in="color1" />
</feMerge>
</filter>
</defs>
</svg>
